<svg width="39" height="39" viewBox="0 0 39 39" fill="none" xmlns="http://www.w3.org/2000/svg">
<path d="M26 25.3377C27.0052 25.3377 27.82 24.5243 27.82 23.5209C27.82 22.5175 27.0052 21.7041 26 21.7041C24.9948 21.7041 24.18 22.5175 24.18 23.5209C24.18 24.5243 24.9948 25.3377 26 25.3377Z" fill="#EFA359"/>
<path fill-rule="evenodd" clip-rule="evenodd" d="M26 26.7651C24.8137 26.7651 22.4412 27.3491 22.36 28.517C23.1725 29.6687 24.505 30.4149 26 30.4149C27.495 30.4149 28.8275 29.6687 29.64 28.517C29.5588 27.3491 27.1863 26.7651 26 26.7651Z" fill="#EFA359"/>
<path fill-rule="evenodd" clip-rule="evenodd" d="M27.625 16.3673V8.54862L15.4375 3.24426L3.25 8.54862V16.5133C3.25 23.8777 8.45 30.7718 15.4375 32.4426C16.3313 32.2317 17.1925 31.9235 18.0375 31.5504C19.7925 34.0485 22.7013 35.6868 26 35.6868C31.3787 35.6868 35.75 31.3233 35.75 25.9541C35.75 21.1363 32.24 17.1459 27.625 16.3673ZM16.25 25.9541C16.25 26.8625 16.38 27.7546 16.6237 28.5819C16.2337 28.7603 15.8438 28.9388 15.4375 29.0685C10.2863 27.4464 6.5 22.1907 6.5 16.5133V10.6736L15.4375 6.7805L24.375 10.6736V16.3673C19.76 17.1459 16.25 21.1363 16.25 25.9541ZM26 32.4426C22.4088 32.4426 19.5 29.539 19.5 25.9541C19.5 22.3692 22.4088 19.4655 26 19.4655C29.5912 19.4655 32.5 22.3692 32.5 25.9541C32.5 29.539 29.5912 32.4426 26 32.4426Z" fill="#EFA359"/>
</svg>
