<svg width="39" height="39" viewBox="0 0 39 39" fill="none" xmlns="http://www.w3.org/2000/svg">
<path d="M32.5 11.375H6.5C4.70507 11.375 3.25 12.8301 3.25 14.625V30.875C3.25 32.6699 4.70507 34.125 6.5 34.125H32.5C34.2949 34.125 35.75 32.6699 35.75 30.875V14.625C35.75 12.8301 34.2949 11.375 32.5 11.375Z" stroke="#EFA359" stroke-width="3" stroke-linecap="round" stroke-linejoin="round"/>
<path d="M26 34.125V8.125C26 7.26305 25.6576 6.4364 25.0481 5.8269C24.4386 5.21741 23.612 4.875 22.75 4.875H16.25C15.388 4.875 14.5614 5.21741 13.9519 5.8269C13.3424 6.4364 13 7.26305 13 8.125V34.125" stroke="#EFA359" stroke-width="3" stroke-linecap="round" stroke-linejoin="round"/>
</svg>
