<svg width="19" height="19" viewBox="0 0 19 19" fill="none" xmlns="http://www.w3.org/2000/svg">
<path d="M0 3.26746H19V15.732H0V3.26746Z" fill="white"/>
<path d="M8.69784 3.26746V8.51502H0V10.7368H8.69784V15.7326H10.4595V10.7368H19V8.51502H10.4595V3.26746H8.69784Z" fill="#BD0034"/>
<path d="M8.11003 3.26746H1.48438L8.11003 7.45755V3.26746Z" fill="#1A237B"/>
<path d="M0 7.77451H4.66984L0 4.81348V7.77451Z" fill="#1A237B"/>
<path d="M0 3.26562V3.99475L5.60441 7.49372H6.98072C6.98072 7.49372 1.45706 4.07253 0.144875 3.26562H0Z" fill="#BD0034"/>
<path d="M8.11003 15.7326H1.48438L8.11003 11.5425V15.7326Z" fill="#1A237B"/>
<path d="M0 11.2255H4.66984L0 14.1865V11.2255Z" fill="#1A237B"/>
<path d="M0 15.7343V15.0052L5.60441 11.5062H6.98072C6.98072 11.5062 1.45706 14.9274 0.144875 15.7343H0Z" fill="#BD0034"/>
<path d="M10.8899 3.26746H17.5155L10.8899 7.45755V3.26746Z" fill="#1A237B"/>
<path d="M18.9999 7.77451H14.3301L18.9999 4.81348V7.77451Z" fill="#1A237B"/>
<path d="M19 3.26562V3.99475L13.3956 7.49372H12.0193C12.0193 7.49372 17.5412 4.07253 18.8551 3.26741L19 3.26562Z" fill="#BD0034"/>
<path d="M10.8899 15.7326H17.5155L10.8899 11.5425V15.7326Z" fill="#1A237B"/>
<path d="M18.9999 11.2255H14.3301L18.9999 14.1865V11.2255Z" fill="#1A237B"/>
<path d="M19 15.7343V15.0052L13.3956 11.5062H12.0193C12.0193 11.5062 17.5412 14.9274 18.8551 15.7325L19 15.7343Z" fill="#BD0034"/>
</svg>
