<svg width="39" height="39" viewBox="0 0 39 39" fill="none" xmlns="http://www.w3.org/2000/svg">
<path d="M17.0327 19.06C20.6176 19.06 23.5212 16.1564 23.5212 12.5715C23.5212 8.98662 20.6176 6.08301 17.0327 6.08301C13.4478 6.08301 10.5442 8.98662 10.5442 12.5715C10.5442 16.1564 13.4478 19.06 17.0327 19.06ZM17.0327 9.32726C18.817 9.32726 20.2769 10.7872 20.2769 12.5715C20.2769 14.3559 18.817 15.8158 17.0327 15.8158C15.2484 15.8158 13.7884 14.3559 13.7884 12.5715C13.7884 10.7872 15.2484 9.32726 17.0327 9.32726ZM7.29992 28.7928C7.62435 27.7709 11.4688 26.0676 15.3457 25.6459L18.6548 22.4016C18.0222 22.3367 17.5518 22.3043 17.0327 22.3043C12.7016 22.3043 4.05566 24.4779 4.05566 28.7928V32.0371H18.6548L15.4106 28.7928H7.29992ZM32.6051 19.8711L24.2836 28.2575L20.9258 24.8835L18.6548 27.1707L24.2836 32.8481L34.8761 22.1583L32.6051 19.8711Z" fill="#EFA359"/>
</svg>
