<svg width="39" height="39" viewBox="0 0 39 39" fill="none" xmlns="http://www.w3.org/2000/svg">
<path d="M6.90625 9.75H10.1562V14.625H26.4062V9.75H29.6562V17.875H32.9062V9.75C32.9062 7.9625 31.4438 6.5 29.6562 6.5H22.8638C22.1812 4.615 20.3937 3.25 18.2812 3.25C16.1687 3.25 14.3813 4.615 13.6988 6.5H6.90625C5.11875 6.5 3.65625 7.9625 3.65625 9.75V32.5C3.65625 34.2875 5.11875 35.75 6.90625 35.75H16.6562V32.5H6.90625V9.75ZM18.2812 6.5C19.175 6.5 19.9062 7.23125 19.9062 8.125C19.9062 9.01875 19.175 9.75 18.2812 9.75C17.3875 9.75 16.6562 9.01875 16.6562 8.125C16.6562 7.23125 17.3875 6.5 18.2812 6.5Z" fill="#EFA359"/>
<path d="M32.9062 20.3125L23.985 29.25L19.0938 24.375L16.6562 26.8125L23.985 34.125L35.3438 22.75L32.9062 20.3125Z" fill="#EFA359"/>
</svg>
