<svg width="39" height="39" viewBox="0 0 39 39" fill="none" xmlns="http://www.w3.org/2000/svg">
<path d="M17.875 29.25L24.375 22.75L17.875 16.25L16.25 17.875L21.125 22.75L16.25 27.625L17.875 29.25ZM32.5 10.5625H26V7.3125C26 6.41875 25.6425 5.60625 25.0413 5.02125C24.4562 4.42 23.6437 4.0625 22.75 4.0625H16.25C14.4625 4.0625 13 5.525 13 7.3125V10.5625H6.5C4.7125 10.5625 3.25 12.025 3.25 13.8125V31.6875C3.25 33.475 4.7125 34.9375 6.5 34.9375H32.5C34.2875 34.9375 35.75 33.475 35.75 31.6875V13.8125C35.75 12.025 34.2875 10.5625 32.5 10.5625ZM16.25 7.3125H22.75V10.5625H16.25V7.3125ZM32.5 31.6875H6.5V13.8125H32.5V31.6875Z" fill="#EFA359"/>
</svg>
