<svg width="35" height="35" viewBox="0 0 35 35" fill="none" xmlns="http://www.w3.org/2000/svg">
<path d="M30.4022 21.6644L23.9613 18.7783L23.9436 18.7701C23.6092 18.6271 23.2444 18.5697 22.8823 18.6031C22.5202 18.6365 22.1721 18.7597 21.8695 18.9615C21.8339 18.985 21.7997 19.0106 21.767 19.0381L18.4393 21.875C16.3311 20.8509 14.1545 18.6908 13.1305 16.6099L15.9715 13.2316C15.9988 13.1974 16.0248 13.1632 16.0494 13.1263C16.2469 12.8246 16.3667 12.4787 16.3982 12.1195C16.4297 11.7603 16.3719 11.3988 16.2299 11.0673V11.0509L13.3356 4.59919C13.1479 4.16615 12.8252 3.80542 12.4157 3.57084C12.0062 3.33626 11.5318 3.24042 11.0633 3.29762C9.21071 3.5414 7.51022 4.45121 6.27941 5.85713C5.04861 7.26304 4.37166 9.06892 4.37501 10.9375C4.37501 21.7929 13.207 30.625 24.0625 30.625C25.9311 30.6283 27.7369 29.9514 29.1429 28.7206C30.5488 27.4898 31.4586 25.7893 31.7024 23.9367C31.7597 23.4684 31.664 22.9941 31.4297 22.5846C31.1954 22.1751 30.8349 21.8523 30.4022 21.6644ZM24.0625 28.4375C19.4228 28.4324 14.9745 26.587 11.6937 23.3062C8.41295 20.0254 6.56758 15.5772 6.56251 10.9375C6.55737 9.60239 7.03836 8.31109 7.91567 7.30472C8.79297 6.29835 10.0066 5.64572 11.3299 5.46872C11.3294 5.47417 11.3294 5.47967 11.3299 5.48512L14.201 11.9109L11.375 15.2933C11.3463 15.3263 11.3203 15.3615 11.2971 15.3986C11.0913 15.7143 10.9706 16.0778 10.9467 16.4539C10.9227 16.8299 10.9963 17.2058 11.1604 17.5451C12.399 20.0785 14.9516 22.6119 17.5123 23.8492C17.8541 24.0117 18.2321 24.0827 18.6095 24.0554C18.987 24.0281 19.3509 23.9033 19.6656 23.6933C19.7007 23.6697 19.7345 23.6441 19.7668 23.6168L23.0904 20.7812L29.5162 23.6591H29.5313C29.3564 24.9843 28.7048 26.2004 27.6982 27.0799C26.6917 27.9593 25.3992 28.442 24.0625 28.4375Z" fill="#F4E5D5"/>
</svg>
