<svg width="39" height="39" viewBox="0 0 39 39" fill="none" xmlns="http://www.w3.org/2000/svg">
<path d="M27.625 34.125V30.875C27.625 29.1511 26.9402 27.4978 25.7212 26.2788C24.5022 25.0598 22.8489 24.375 21.125 24.375H8.125C6.40109 24.375 4.74779 25.0598 3.52881 26.2788C2.30982 27.4978 1.625 29.1511 1.625 30.875V34.125" stroke="#EFA359" stroke-width="3" stroke-linecap="round" stroke-linejoin="round"/>
<path d="M14.625 17.875C18.2149 17.875 21.125 14.9649 21.125 11.375C21.125 7.78515 18.2149 4.875 14.625 4.875C11.0351 4.875 8.125 7.78515 8.125 11.375C8.125 14.9649 11.0351 17.875 14.625 17.875Z" stroke="#EFA359" stroke-width="3" stroke-linecap="round" stroke-linejoin="round"/>
<path d="M37.375 34.1249V30.8749C37.3739 29.4347 36.8946 28.0357 36.0122 26.8974C35.1299 25.7592 33.8945 24.9462 32.5 24.5862" stroke="#EFA359" stroke-width="3" stroke-linecap="round" stroke-linejoin="round"/>
<path d="M26 5.08618C27.3982 5.44417 28.6374 6.25732 29.5224 7.39744C30.4074 8.53755 30.8877 9.93978 30.8877 11.3831C30.8877 12.8263 30.4074 14.2286 29.5224 15.3687C28.6374 16.5088 27.3982 17.3219 26 17.6799" stroke="#EFA359" stroke-width="3" stroke-linecap="round" stroke-linejoin="round"/>
</svg>
