<svg width="39" height="39" viewBox="0 0 39 39" fill="none" xmlns="http://www.w3.org/2000/svg">
<path d="M37.375 19.4837L33.41 14.95L33.9625 8.95375L28.0963 7.62125L25.025 2.4375L19.5 4.81L13.975 2.4375L10.9038 7.62125L5.0375 8.9375L5.59 14.95L1.625 19.4837L5.59 24.0175L5.0375 30.03L10.9038 31.3625L13.975 36.5625L19.5 34.1738L25.025 36.5462L28.0963 31.3625L33.9625 30.03L33.41 24.0338L37.375 19.4837ZM30.9562 21.8888L30.0462 22.945L30.1763 24.3263L30.4688 27.495L26.0163 28.5025L25.3013 29.705L23.6925 32.435L20.8 31.1838L19.5 30.6313L18.2162 31.1838L15.3238 32.435L13.715 29.7213L13 28.5187L8.5475 27.5112L8.84 24.3263L8.97 22.945L8.06 21.8888L5.96375 19.5L8.06 17.095L8.97 16.0387L8.82375 14.6413L8.53125 11.4888L12.9837 10.4812L13.6988 9.27875L15.3075 6.54875L18.2 7.8L19.5 8.3525L20.7838 7.8L23.6763 6.54875L25.285 9.27875L26 10.4812L30.4525 11.4888L30.16 14.6575L30.03 16.0387L30.94 17.095L33.0362 19.4837L30.9562 21.8888Z" fill="#EFA359"/>
<path d="M16.3962 22.3438L12.6263 18.5575L10.2212 20.9788L16.3962 27.17L28.3237 15.21L25.9187 12.7887L16.3962 22.3438Z" fill="#EFA359"/>
</svg>
